<?xml version="1.0" encoding="utf-8"?>
<!-- Generator: Adobe Illustrator 19.0.0, SVG Export Plug-In . SVG Version: 6.00 Build 0)  -->
<svg version="1.1" id="Layer_1" xmlns="http://www.w3.org/2000/svg" xmlns:xlink="http://www.w3.org/1999/xlink" x="0px" y="0px"
	 viewBox="0 0 200 200" style="enable-background:new 0 0 200 200;" xml:space="preserve">
<style type="text/css">
	.st0{fill:#FFFFFF;}
</style>
<path id="XMLID_93_" class="st0" d="M191.1,93.4c-8.1,0-13.3,1.1-19.1,2.8l-5.2-79.4l-0.3,0c0,0,0-0.1,0-0.1
	c-0.4-6.3-33.1-9.4-72.9-6.7C53.8,12.5,21.9,20,22.3,26h0l5.3,81.6C11.5,110.4,0,115.5,0,124.4c0,10.6,18.9,16,40.1,16.6
	c0.3,20.7,14,37.3,30,49.4c12.4,9.4,42.1-7.1,56.2-27.6c0,0,13.4,25.3,43.4,20.6c21.5-3.4,22.3-30.2,12.8-47.9
	c-1.9-3.6-7.1-13.9-11-21.7c3.8,0.6,6.6,1,7.5,0.9C201.5,113.6,207.1,93.4,191.1,93.4z M153.8,101.2l-5-75.8c3.7-0.9,7-1.9,9.6-2.9
	l5,76.1C160.6,99.5,157.5,100.3,153.8,101.2z M31.4,31.1c6.6,1.5,16.5,2.4,28.5,2.7l4.7,70.9c-9.7,0.2-19.4,0.7-28.2,1.8L31.4,31.1z
	 M74.5,183.4c-13.6-10.5-25.5-24.6-25.9-42.4c12-0.4,24.1-2.4,33.2-5.8c14-5.2,28-14.1,42.8-19.5c1.2-0.4,2.4-0.7,3.6-1
	c2.8,9.2,1.2,21.6-1.2,30.8C121,168.1,83.8,190.5,74.5,183.4z"/>
</svg>
