<?xml version="1.0" encoding="utf-8"?>
<!-- Generator: Adobe Illustrator 19.0.0, SVG Export Plug-In . SVG Version: 6.00 Build 0)  -->
<svg version="1.1" id="Layer_1" xmlns="http://www.w3.org/2000/svg" xmlns:xlink="http://www.w3.org/1999/xlink" x="0px" y="0px"
	 viewBox="0 0 200 200" style="enable-background:new 0 0 200 200;" xml:space="preserve">
<style type="text/css">
	.st0{fill:#FFFFFF;}
</style>
<g id="XMLID_172_">
	<path id="XMLID_173_" class="st0" d="M138.8,55.8c-3.4,2.9-7.1,5.9-11.1,9l54.2,1.8c3.4-3.4,6.2-6.7,8.1-9.4L138.8,55.8z"/>
	<path id="XMLID_174_" class="st0" d="M72.3,91.2c10.3-9.5,34.7-19.9,61.4-37.4c18.8-12.3,31.4-23.7,31.4-23.7s-5.9,7.2-17.3,17.8
		l46.5,1c5.3-12.8,9.5-34-3.4-45.5c-9.6-8.5-41.1,7.9-49.2,12.8C124,26.9,100,47.6,60.2,66.8C27,82.9,29.1,139,29.1,139
		S45,116.4,72.3,91.2z"/>
	<path id="XMLID_175_" class="st0" d="M100.8,83.6c-3.9,2.4-8,4.9-12.2,7.3C35.6,120.8,1.2,201,1.2,201s14.6-20.4,24.2-23.3
		c0,0,4.2-15.3,11-26.6c9.6-16.1,20.6-26.7,29.5-33c15.4-10.8,55.3-18.3,71.6-23.5c7.1-2.3,14.2-5.7,20.8-9.7L100.8,83.6z"/>
</g>
</svg>
