<?xml version="1.0" encoding="utf-8"?>
<!-- Generator: Adobe Illustrator 19.0.0, SVG Export Plug-In . SVG Version: 6.00 Build 0)  -->
<svg version="1.1" id="Layer_1" xmlns="http://www.w3.org/2000/svg" xmlns:xlink="http://www.w3.org/1999/xlink" x="0px" y="0px"
	 viewBox="0 0 200 200" style="enable-background:new 0 0 200 200;" xml:space="preserve">
<style type="text/css">
	.st0{fill:#FFFFFF;}
</style>
<g id="XMLID_253_">
	
		<rect id="XMLID_255_" x="134.6" y="5.2" transform="matrix(0.7071 0.7071 -0.7071 0.7071 66.6581 -96.6268)" class="st0" width="30.8" height="53.8"/>
	
		<rect id="XMLID_256_" x="16.8" y="123" transform="matrix(0.7071 0.7071 -0.7071 0.7071 115.4472 21.1605)" class="st0" width="30.8" height="53.8"/>
	<path id="XMLID_257_" class="st0" d="M186.7,31.6l-37.7,37.7l1.7,1.7c4.8,4.8,8.4,15.7,4.2,20c0,0-18.7,21.7-27.7,30.8
		s-36.7,31.3-36.7,31.3c-4.2,4.2-14.8,2.4-19.6-2.4l-1.7-1.7l-37.7,37.7c18.8,14.4,40.5,13.3,60,2.3c15.4-8.7,36.4-22.6,55.1-43.2
		S177.3,110.4,188,91C198.5,72,201.1,50.5,186.7,31.6z"/>
</g>
</svg>
