<?xml version="1.0" encoding="utf-8"?>
<!-- Generator: Adobe Illustrator 19.0.0, SVG Export Plug-In . SVG Version: 6.00 Build 0)  -->
<svg version="1.1" id="Layer_1" xmlns="http://www.w3.org/2000/svg" xmlns:xlink="http://www.w3.org/1999/xlink" x="0px" y="0px"
	 viewBox="0 0 200 200" style="enable-background:new 0 0 200 200;" xml:space="preserve">
<style type="text/css">
	.st0{fill:#FFFFFF;}
</style>
<path id="XMLID_124_" class="st0" d="M141.4,62.5c3.1-33.8-1.7-61.8-10.7-62.6s-18.8,25.9-21.8,59.7c-0.9,10.3-0.5,21.4-0.7,28.8
	c-0.4,15,1.2,44.5,1.2,44.5l17.6,1.6c0,0,7.5-28.6,10-43.5C138.3,82.7,140.5,72.8,141.4,62.5z"/>
<path id="XMLID_2_" class="st0" d="M66.6,87.5c-7-33.2-5.5-61.6,3.4-63.5c8.8-1.9,21.6,23.5,28.6,56.7c2.1,10.2,3,21.2,4,28.5
	c2.1,14.9,4,44.3,4,44.3l-17.3,3.6c0,0-10.7-27.5-15-42C72,107.2,68.8,97.6,66.6,87.5z"/>
<rect id="XMLID_129_" x="31.8" y="163.5" transform="matrix(2.188419e-002 0.9998 -0.9998 2.188419e-002 223.9171 103.7826)" class="st0" width="54.2" height="5.7"/>
<rect id="XMLID_128_" x="120.1" y="161.5" transform="matrix(2.188419e-002 0.9998 -0.9998 2.188419e-002 308.3073 13.6028)" class="st0" width="54.2" height="5.7"/>
<path id="XMLID_127_" class="st0" d="M43.1,143.1c13.6,0.6,14.9-4.3,42.3-6.2c5.9-0.4,81.7,9.8,82.4-8.6
	c0.5-11.6-34.5-15.2-52.7-9.3c-12.8,4.2-25.9,12.9-40,13.6c-7.8,0.4-21.7-3.1-23.6-3.1C36.9,129.7,32.7,142.6,43.1,143.1z"/>
<ellipse id="XMLID_126_" transform="matrix(-0.9997 2.299482e-002 -2.299482e-002 -0.9997 211.9066 382.5273)" class="st0" cx="103.8" cy="192.5" rx="46.9" ry="7.4"/>
<polygon id="XMLID_125_" class="st0" points="75.9,135.3 133.9,134.5 135.1,188.5 77.1,189.3 "/>
</svg>
