<?xml version="1.0" encoding="utf-8"?>
<!-- Generator: Adobe Illustrator 19.0.0, SVG Export Plug-In . SVG Version: 6.00 Build 0)  -->
<svg version="1.1" id="Layer_1" xmlns="http://www.w3.org/2000/svg" xmlns:xlink="http://www.w3.org/1999/xlink" x="0px" y="0px"
	 viewBox="0 0 200 200" style="enable-background:new 0 0 200 200;" xml:space="preserve">
<style type="text/css">
	.st0{fill:#FFFFFF;}
</style>
<path id="XMLID_124_" class="st0" d="M140.4,62.5c3.1-33.8-1.7-61.8-10.7-62.6s-18.8,25.9-21.8,59.7c-0.9,10.3-0.5,21.4-0.7,28.8
	c-0.4,15,1.2,44.5,1.2,44.5l17.6,1.6c0,0,7.5-28.6,10-43.5C137.3,82.7,139.5,72.8,140.4,62.5z"/>
<path id="XMLID_123_" class="st0" d="M99.9,85.7C96.6,74.2,93.1,63,86.8,53c-9-11.7-18-12.8-26.4-2.6c-7.7,9.3-27.3,63.9-18.2,63.8
	C58,114,65.8,95.5,73.9,84.7L86,132.1l4.6-1.2l0,0c0,0,0,0,0,0l8.8-2.3l0,0l5.1-1C104.5,127.7,104,100.1,99.9,85.7z"/>
<rect id="XMLID_129_" x="30.8" y="163.5" transform="matrix(2.188419e-002 0.9998 -0.9998 2.188419e-002 222.9389 104.7824)" class="st0" width="54.2" height="5.7"/>
<rect id="XMLID_128_" x="119.1" y="161.5" transform="matrix(2.188419e-002 0.9998 -0.9998 2.188419e-002 307.3292 14.6026)" class="st0" width="54.2" height="5.7"/>
<path id="XMLID_127_" class="st0" d="M42.1,143.1c13.6,0.6,14.9-4.3,42.3-6.2c5.9-0.4,81.7,9.8,82.4-8.6
	c0.5-11.6-34.5-15.2-52.7-9.3c-12.8,4.2-25.9,12.9-40,13.6c-7.8,0.4-21.7-3.1-23.6-3.1C35.9,129.7,31.7,142.6,42.1,143.1z"/>
<ellipse id="XMLID_126_" transform="matrix(-0.9997 2.299482e-002 -2.299482e-002 -0.9997 209.9068 382.5503)" class="st0" cx="102.8" cy="192.5" rx="46.9" ry="7.4"/>
<polygon id="XMLID_125_" class="st0" points="74.9,135.3 132.9,134.5 134.1,188.5 76.1,189.3 "/>
</svg>
