<?xml version="1.0" encoding="utf-8"?>
<!-- Generator: Adobe Illustrator 19.0.0, SVG Export Plug-In . SVG Version: 6.00 Build 0)  -->
<svg version="1.1" id="Layer_1" xmlns="http://www.w3.org/2000/svg" xmlns:xlink="http://www.w3.org/1999/xlink" x="0px" y="0px"
	 viewBox="0 0 200 200" style="enable-background:new 0 0 200 200;" xml:space="preserve">
<style type="text/css">
	.st0{fill:#FFFFFF;}
</style>
<path id="XMLID_10_" class="st0" d="M156,159v-0.5c0-19.2-13.4-35.1-31.4-38.7c2.2-6.3,8.5-25.1,11.2-35.9c1.8-7.2,4.4-15.9,6-25
	c5.1-29.9,2.7-55.2-5.2-56.6C128.6,1,118.1,24.1,113,54c-1.6,9.1-1.9,19-2.6,25.6c-1.3,12.5-2,36.4-2,39.4h-16
	c0.3-6.6,0.8-24.6-1.3-35.2c-2.1-10.4-4.5-20.7-9.4-30c-7.2-11-15.1-12.6-23.3-4.2c-7.5,7.7-28.7,55.1-20.7,55.6
	c14.2,0.9,22.4-15,30.4-24.1l6.8,39C57.5,124.3,45,139.8,45,158.5v0.5h-0.2c0.4,22,25.7,40,47.5,40h16.5c21.8,0,47.3-18,47.6-40H156
	z M83.5,171.6c-5,0-9.1-6.3-9.1-14.1s4.1-14.1,9.1-14.1c5,0,9.1,6.3,9.1,14.1S88.5,171.6,83.5,171.6z M116.5,171.6
	c-5,0-9.1-6.3-9.1-14.1s4.1-14.1,9.1-14.1s9.1,6.3,9.1,14.1S121.5,171.6,116.5,171.6z"/>
</svg>
