<?xml version="1.0" encoding="utf-8"?>
<!-- Generator: Adobe Illustrator 19.0.0, SVG Export Plug-In . SVG Version: 6.00 Build 0)  -->
<svg version="1.1" id="Layer_1" xmlns="http://www.w3.org/2000/svg" xmlns:xlink="http://www.w3.org/1999/xlink" x="0px" y="0px"
	 viewBox="0 0 200 200" style="enable-background:new 0 0 200 200;" xml:space="preserve">
<style type="text/css">
	.st0{fill:#FFFFFF;}
</style>
<g id="XMLID_330_">
	<polygon id="XMLID_337_" class="st0" points="11.9,89.5 15.5,77.6 19.2,89.5 31.1,93.2 19.2,96.8 15.5,108.7 11.9,96.8 0,93.2 	"/>
	<polygon id="XMLID_336_" class="st0" points="89.5,11.9 93.2,0 96.8,11.9 108.7,15.5 96.8,19.2 93.2,31.1 89.5,19.2 77.6,15.5 	"/>
	<polygon id="XMLID_335_" class="st0" points="124.7,31.5 132,7.8 139.3,31.5 163,38.8 139.3,46.1 132,69.9 124.7,46.1 100.9,38.8 	
		"/>
	<polygon id="XMLID_334_" class="st0" points="167.2,11.9 170.8,0 174.4,11.9 186.3,15.5 174.4,19.2 170.8,31.1 167.2,19.2 
		155.3,15.5 	"/>
	<path id="XMLID_331_" class="st0" d="M196,152.2L47.1,5.3c-3.6-3.5-9.4-3.5-12.9,0.1L4.9,35.1C1.3,38.7,1.4,44.5,5,48L153.8,195
		c3.6,3.5,9.4,3.5,12.9-0.1l29.4-29.7C199.6,161.6,199.6,155.8,196,152.2z M71.9,93.4L22.2,43.6l22.5-22.5l49.8,49.8L71.9,93.4z"/>
</g>
</svg>
